<svg width="262" height="299" viewBox="0 0 262 299" fill="none" xmlns="http://www.w3.org/2000/svg">
<path fill-rule="evenodd" clip-rule="evenodd" d="M133.62 0.717438L154.579 12.7399C156.247 13.6944 157.2 15.3378 157.2 17.2475V215.626C157.2 217.536 158.154 219.179 159.82 220.135C161.488 221.089 163.395 221.089 165.06 220.135L206.981 196.087C208.646 195.133 209.601 193.49 209.601 191.579V53.317C209.601 51.4046 210.553 49.7632 212.221 48.8073C213.887 47.8535 215.794 47.8535 217.462 48.8073L259.382 72.8514C261.048 73.8073 262 75.4487 262 77.3611V221.637C262 223.547 261.048 225.189 259.382 226.144L133.62 298.283C131.954 299.239 130.045 299.239 128.38 298.283L107.421 286.256C105.753 285.301 104.8 283.659 104.8 281.748V203.604C104.8 201.694 103.846 200.051 102.18 199.097C100.512 198.141 98.6053 198.141 96.9394 199.097L28.8212 238.172C27.1561 239.126 25.2491 239.126 23.5812 238.172L2.61824 226.144C0.952383 225.189 0 223.547 0 221.637V77.3611C0 75.4487 0.952383 73.8073 2.61824 72.8514L44.5385 48.8073C46.2064 47.8535 48.1135 47.8535 49.7794 48.8073C51.4466 49.7632 52.3991 51.4046 52.3991 53.317V155.515C52.3991 157.424 53.3536 159.068 55.0194 160.022C56.6846 160.978 58.5938 160.978 60.2597 160.022L102.18 135.976C103.846 135.02 104.8 133.377 104.8 131.466V17.2475C104.8 15.3378 105.753 13.6944 107.421 12.7399L128.38 0.717438C130.045 -0.239136 131.954 -0.239136 133.62 0.717438Z" fill="#9EE538"/>
</svg>
