<svg width="828" height="307" viewBox="0 0 828 307" fill="none" xmlns="http://www.w3.org/2000/svg">
<path fill-rule="evenodd" clip-rule="evenodd" d="M103.885 0.559021L120.18 9.96577C121.475 10.7118 122.215 11.9971 122.215 13.4926V168.674C122.215 170.167 122.957 171.453 124.253 172.2C125.549 172.948 127.031 172.948 128.327 172.2L160.918 153.388C162.214 152.643 162.955 151.357 162.955 149.862V41.7057C162.955 40.2123 163.697 38.9263 164.992 38.1789C166.288 37.4308 167.77 37.4308 169.066 38.1789L201.656 56.9866C202.951 57.7347 203.693 59.0199 203.693 60.5155V173.375C203.693 174.869 202.951 176.155 201.656 176.902L103.885 233.332C102.589 234.079 101.104 234.079 99.8092 233.332L83.5144 223.925C82.2184 223.177 81.4783 221.892 81.4783 220.398V159.271C81.4783 157.775 80.7361 156.49 79.4402 155.742C78.1449 154.996 76.6626 154.996 75.3666 155.742L22.4086 186.309C21.1126 187.056 19.6303 187.056 18.335 186.309L2.0381 176.902C0.742159 176.155 0 174.869 0 173.375V60.5155C0 59.0199 0.742159 57.7347 2.0381 56.9866L34.6278 38.1789C35.923 37.4308 37.4054 37.4308 38.7013 38.1789C39.9973 38.9263 40.7388 40.2123 40.7388 41.7057V121.65C40.7388 123.144 41.479 124.43 42.7749 125.177C44.0708 125.925 45.5552 125.925 46.8484 125.177L79.4402 106.365C80.7361 105.619 81.4783 104.334 81.4783 102.839V13.4926C81.4783 11.9971 82.2184 10.7118 83.5144 9.96577L99.8092 0.559021C101.104 -0.186356 102.589 -0.186356 103.885 0.559021Z" fill="white"/>
<path d="M354.571 190.484H328.951C326.107 190.484 324.306 188.911 323.562 185.767L301.09 80.6399C300.491 77.4961 301.612 75.9231 304.46 75.9231H326.031C329.326 75.9231 331.125 77.4961 331.426 80.6399L341.537 157.461H343.332L359.287 80.6399C359.738 77.4961 361.463 75.9231 364.454 75.9231H384.231C387.378 75.9231 389.251 77.4961 389.847 80.6399L405.353 157.461H407.148L417.486 80.6399C417.935 77.4961 419.736 75.9231 422.881 75.9231H444.452C447.45 75.9231 448.569 77.4961 447.825 80.6399L425.353 185.767C424.754 188.911 422.955 190.484 419.958 190.484H394.344C391.346 190.484 389.547 188.911 388.949 185.767L375.242 109.844H373.443L359.963 185.767C359.515 188.911 357.716 190.484 354.571 190.484ZM505.349 190.484H499.956C488.117 190.484 478.981 187.34 472.541 181.05C466.098 174.76 462.879 165.701 462.879 153.868V112.535C462.879 100.707 466.098 91.6472 472.541 85.3574C478.981 79.067 488.117 75.9231 499.956 75.9231H551.863C555.158 75.9231 556.803 77.4961 556.803 80.6399V185.767C556.803 188.911 555.158 190.484 551.863 190.484H532.984C529.839 190.484 528.266 188.911 528.266 185.767V178.354H527.368C525.721 182.396 522.799 185.429 518.603 187.451C514.411 189.471 509.989 190.484 505.349 190.484ZM528.266 148.703V103.101C528.266 101.454 527.368 100.631 525.569 100.631H504.447C499.654 100.631 496.282 101.645 494.335 103.664C492.387 105.686 491.416 109.094 491.416 113.885V152.522C491.416 157.313 492.387 160.722 494.335 162.741C496.282 164.763 499.654 165.776 504.447 165.776H512.764C523.098 165.776 528.266 160.082 528.266 148.703ZM605.344 221.033H586.244C583.097 221.033 581.525 219.534 581.525 216.542V80.6399C581.525 77.4961 583.097 75.9231 586.244 75.9231H605.344C608.489 75.9231 610.063 77.4961 610.063 80.6399V88.0526H610.96C612.607 84.0078 615.531 80.9784 619.721 78.9567C623.917 76.9309 628.335 75.9231 632.98 75.9231H642.194C653.727 75.9231 662.455 79.067 668.372 85.3574C674.29 91.6472 677.251 100.707 677.251 112.535V153.868C677.251 165.701 674.29 174.76 668.372 181.05C662.455 187.34 653.727 190.484 642.194 190.484H632.98C628.335 190.484 623.917 189.471 619.721 187.451C615.531 185.429 612.607 182.396 610.96 178.354H610.063V216.542C610.063 219.534 608.489 221.033 605.344 221.033ZM625.564 165.776H635.454C640.247 165.776 643.656 164.763 645.679 162.741C647.699 160.722 648.713 157.313 648.713 152.522V113.885C648.713 109.094 647.699 105.686 645.679 103.664C643.656 101.645 640.247 100.631 635.454 100.631H625.564C615.23 100.631 610.063 106.325 610.063 117.705V148.703C610.063 160.082 615.23 165.776 625.564 165.776ZM743.086 190.484H700.389C697.396 190.484 695.897 188.911 695.897 185.767V171.388C695.897 169.744 696.199 168.582 696.795 167.907C697.396 167.233 698.594 166.899 700.389 166.899H737.915C745.256 166.899 748.929 164.652 748.929 160.156V159.034C748.929 155.439 745.859 151.994 739.716 148.703L717.469 136.346C709.83 132.452 704.21 128.263 700.617 123.767C697.023 119.277 695.222 113.51 695.222 106.473C695.222 95.9894 697.994 88.2758 703.536 83.3357C709.082 78.3935 717.77 75.9231 729.602 75.9231H767.128C770.126 75.9231 771.626 77.4961 771.626 80.6399V95.2398C771.626 96.8868 771.324 98.0459 770.722 98.7221C770.126 99.3976 768.927 99.734 767.128 99.734H735.895C728.554 99.734 724.884 101.604 724.884 105.348V106.473C724.884 109.766 728.105 113.135 734.549 116.58L757.242 130.058C765.033 134.251 770.501 138.556 773.646 142.974C776.793 147.393 778.365 153.196 778.365 160.383C778.365 180.448 766.606 190.484 743.086 190.484ZM799.266 56.6024V37.0602C799.266 34.0678 800.76 32.5702 803.757 32.5702H823.306C826.303 32.5702 827.803 33.9897 827.803 36.837V56.6024C827.803 59.5989 826.303 61.0978 823.306 61.0978H803.757C800.76 61.0978 799.266 59.5989 799.266 56.6024ZM799.266 185.767V80.6399C799.266 77.4961 800.76 75.9231 803.757 75.9231H823.08C826.229 75.9231 827.803 77.4961 827.803 80.6399V185.767C827.803 187.713 827.465 188.985 826.789 189.587C826.115 190.183 824.953 190.484 823.306 190.484H803.984C800.837 190.484 799.266 188.911 799.266 185.767Z" fill="white"/>
<path d="M603.141 297.559C601.086 297.559 599.255 297.107 597.651 296.202C596.047 295.301 594.778 293.986 593.843 292.258C592.909 290.529 592.396 288.451 592.303 286.022H593.517V296.718H589.966V262.625H594.451V279.205L592.863 282.614C592.989 279.905 593.533 277.695 594.498 275.983C595.463 274.268 596.734 273 598.305 272.176C599.877 271.35 601.614 270.938 603.516 270.938C605.289 270.938 606.91 271.273 608.372 271.942C609.837 272.611 611.098 273.531 612.156 274.698C613.217 275.865 614.025 277.218 614.585 278.761C615.146 280.301 615.426 281.959 615.426 283.734V284.575C615.426 286.35 615.14 288.014 614.563 289.571C613.987 291.129 613.153 292.508 612.063 293.706C610.976 294.902 609.672 295.844 608.164 296.532C606.653 297.215 604.978 297.559 603.141 297.559ZM602.628 293.634C604.308 293.634 605.773 293.23 607.019 292.42C608.264 291.613 609.231 290.498 609.915 289.082C610.601 287.665 610.943 286.022 610.943 284.156C610.943 282.287 610.592 280.652 609.891 279.252C609.192 277.848 608.217 276.768 606.972 276.005C605.727 275.242 604.279 274.859 602.628 274.859C601.132 274.859 599.745 275.195 598.471 275.865C597.192 276.535 596.173 277.5 595.409 278.761C594.646 280.021 594.263 281.539 594.263 283.314V285.462C594.263 287.173 594.653 288.637 595.435 289.851C596.212 291.065 597.239 291.999 598.517 292.654C599.792 293.308 601.163 293.634 602.628 293.634ZM620.007 306.432V302.416H623.603C624.661 302.416 625.557 302.284 626.288 302.018C627.022 301.753 627.627 301.309 628.111 300.688C628.593 300.064 628.991 299.238 629.302 298.209L637.149 271.778H641.543L633.226 299.38C632.727 301.031 632.028 302.377 631.125 303.418C630.219 304.461 629.124 305.225 627.832 305.706C626.538 306.189 625.034 306.432 623.323 306.432H620.007ZM627.62 296.155V292.42H633.038V296.155H627.62ZM627.154 296.155L618.231 271.778H622.808L631.358 296.155H627.154ZM673.775 297.559C671.129 297.559 668.73 297.122 666.582 296.252C664.433 295.378 662.586 294.147 661.045 292.56C659.502 290.972 658.314 289.096 657.47 286.934C656.63 284.769 656.21 282.411 656.21 279.857V278.831C656.21 276.651 656.59 274.54 657.354 272.504C658.117 270.462 659.223 268.628 660.67 266.99C662.12 265.359 663.885 264.065 665.974 263.114C668.06 262.166 670.413 261.692 673.027 261.692C675.864 261.692 678.385 262.229 680.598 263.302C682.807 264.379 684.584 265.87 685.922 267.786C687.261 269.701 688.042 271.919 688.26 274.44H683.587C683.37 272.542 682.746 270.962 681.718 269.701C680.691 268.441 679.42 267.49 677.909 266.852C676.4 266.213 674.772 265.895 673.027 265.895C671.251 265.895 669.618 266.213 668.122 266.852C666.628 267.49 665.342 268.402 664.268 269.583C663.194 270.768 662.36 272.185 661.769 273.832C661.177 275.482 660.882 277.337 660.882 279.392C660.882 281.726 661.201 283.773 661.839 285.53C662.479 287.292 663.372 288.756 664.526 289.923C665.679 291.09 667.04 291.97 668.612 292.56C670.187 293.152 671.907 293.447 673.775 293.447C676.423 293.447 678.75 292.912 680.759 291.838C682.768 290.764 684.287 289.368 685.314 287.657L683.634 293.215V283.081H687.933V291.207C686.406 293.199 684.444 294.755 682.045 295.875C679.646 296.995 676.891 297.559 673.775 297.559ZM672.561 284.014V280.186H690.832V284.014H672.561ZM705.359 297.466C702.398 297.466 700.127 296.499 698.538 294.568C696.949 292.64 696.156 289.851 696.156 286.21V271.73H700.64V287.097C700.64 289.057 701.17 290.591 702.229 291.698C703.286 292.801 704.72 293.354 706.526 293.354C708.395 293.354 709.922 292.754 711.103 291.556C712.288 290.358 712.878 288.717 712.878 286.63V271.73H717.366V296.718H713.815V286.022H714.377C714.377 288.484 714.046 290.56 713.395 292.258C712.739 293.955 711.766 295.246 710.474 296.134C709.18 297.021 707.54 297.466 705.545 297.466H705.359ZM726.054 296.718V271.778H729.604V282.474H729.043C729.043 280.013 729.38 277.935 730.049 276.238C730.719 274.54 731.738 273.249 733.109 272.364C734.478 271.476 736.209 271.031 738.294 271.031H738.481C741.628 271.031 743.955 272.013 745.466 273.975C746.978 275.937 747.731 278.768 747.731 282.474V296.718H743.246V281.539C743.246 279.609 742.702 278.06 741.612 276.892C740.52 275.725 739.026 275.143 737.126 275.143C735.164 275.143 733.577 275.747 732.359 276.964C731.145 278.178 730.541 279.796 730.541 281.819V296.718H726.054ZM751.56 306.243V302.228H754.175C755.36 302.228 756.272 301.901 756.91 301.246C757.55 300.594 757.868 299.691 757.868 298.54V271.778H762.165V297.885C762.165 299.971 761.877 301.621 761.3 302.835C760.725 304.049 759.807 304.921 758.544 305.451C757.283 305.979 755.611 306.243 753.524 306.243H751.56ZM753.942 275.327V271.778H762.165V275.327H753.942ZM758.942 267.388C757.946 267.388 757.206 267.125 756.722 266.594C756.242 266.064 755.999 265.396 755.999 264.586C755.999 263.776 756.242 263.106 756.722 262.578C757.206 262.05 757.946 261.786 758.942 261.786C759.937 261.786 760.679 262.05 761.161 262.578C761.644 263.106 761.886 263.776 761.886 264.586C761.886 265.396 761.644 266.064 761.161 266.594C760.679 267.125 759.937 267.388 758.942 267.388ZM782.256 297.559C780.076 297.559 778.161 297.182 776.51 296.439C774.858 295.689 773.466 294.703 772.327 293.471C771.191 292.242 770.336 290.865 769.759 289.338C769.182 287.814 768.892 286.257 768.892 284.668V283.827C768.892 282.241 769.19 280.675 769.781 279.133C770.375 277.593 771.245 276.209 772.399 274.978C773.551 273.749 774.951 272.767 776.603 272.036C778.254 271.303 780.136 270.938 782.256 270.938C784.373 270.938 786.258 271.303 787.907 272.036C789.558 272.767 790.959 273.749 792.113 274.978C793.265 276.209 794.139 277.593 794.73 279.133C795.322 280.675 795.619 282.241 795.619 283.827V284.668C795.619 286.257 795.33 287.814 794.751 289.338C794.174 290.865 793.319 292.242 792.183 293.471C791.045 294.703 789.651 295.689 788 296.439C786.351 297.182 784.433 297.559 782.256 297.559ZM782.256 293.541C784.123 293.541 785.72 293.129 787.044 292.304C788.366 291.481 789.379 290.366 790.081 288.964C790.78 287.563 791.13 285.992 791.13 284.249C791.13 282.474 790.773 280.885 790.056 279.485C789.341 278.084 788.319 276.978 786.998 276.17C785.673 275.36 784.093 274.956 782.256 274.956C780.45 274.956 778.875 275.36 777.537 276.17C776.196 276.978 775.169 278.084 774.454 279.485C773.738 280.885 773.38 282.474 773.38 284.249C773.38 285.992 773.729 287.563 774.429 288.964C775.13 290.366 776.144 291.481 777.465 292.304C778.79 293.129 780.387 293.541 782.256 293.541ZM802.345 306.057V271.778H805.898V282.567L805.057 282.474C805.21 279.796 805.779 277.609 806.76 275.911C807.741 274.214 809.027 272.962 810.615 272.152C812.204 271.344 813.932 270.938 815.8 270.938C817.608 270.938 819.252 271.28 820.73 271.965C822.208 272.651 823.477 273.585 824.538 274.766C825.596 275.95 826.406 277.321 826.966 278.877C827.527 280.433 827.807 282.083 827.807 283.827V284.668C827.807 286.412 827.512 288.061 826.919 289.618C826.327 291.176 825.495 292.547 824.419 293.728C823.344 294.912 822.068 295.844 820.59 296.532C819.112 297.215 817.482 297.559 815.706 297.559C813.932 297.559 812.235 297.169 810.615 296.392C808.994 295.611 807.656 294.35 806.595 292.607C805.538 290.865 804.931 288.577 804.777 285.742L806.832 289.478V306.057H802.345ZM815.007 293.634C816.687 293.634 818.152 293.238 819.397 292.444C820.644 291.651 821.61 290.545 822.294 289.129C822.979 287.711 823.323 286.086 823.323 284.249C823.323 282.381 822.979 280.745 822.294 279.345C821.61 277.945 820.644 276.846 819.397 276.052C818.152 275.257 816.687 274.859 815.007 274.859C813.511 274.859 812.126 275.195 810.85 275.865C809.572 276.535 808.551 277.5 807.788 278.761C807.024 280.021 806.642 281.539 806.642 283.314V285.462C806.642 287.173 807.032 288.637 807.813 289.851C808.59 291.065 809.618 291.999 810.896 292.654C812.17 293.308 813.542 293.634 815.007 293.634Z" fill="white"/>
</svg>
