<svg width="828" height="234" viewBox="0 0 828 234" fill="none" xmlns="http://www.w3.org/2000/svg">
<path fill-rule="evenodd" clip-rule="evenodd" d="M103.885 0.559021L120.18 9.96577C121.475 10.7118 122.215 11.9971 122.215 13.4926V168.674C122.215 170.167 122.957 171.453 124.253 172.2C125.549 172.948 127.031 172.948 128.327 172.2L160.918 153.388C162.214 152.643 162.955 151.357 162.955 149.862V41.7057C162.955 40.2123 163.697 38.9263 164.992 38.1789C166.288 37.4308 167.77 37.4308 169.066 38.1789L201.656 56.9866C202.951 57.7347 203.693 59.0199 203.693 60.5155V173.375C203.693 174.869 202.951 176.155 201.656 176.902L103.885 233.332C102.589 234.079 101.104 234.079 99.8092 233.332L83.5144 223.925C82.2184 223.177 81.4783 221.892 81.4783 220.398V159.271C81.4783 157.775 80.7361 156.49 79.4402 155.742C78.1449 154.996 76.6626 154.996 75.3666 155.742L22.4086 186.309C21.1126 187.056 19.6303 187.056 18.335 186.309L2.0381 176.902C0.742159 176.155 0 174.869 0 173.375V60.5155C0 59.0199 0.742159 57.7347 2.0381 56.9866L34.6278 38.1789C35.923 37.4308 37.4054 37.4308 38.7013 38.1789C39.9973 38.9263 40.7388 40.2123 40.7388 41.7057V121.65C40.7388 123.144 41.479 124.43 42.7749 125.177C44.0708 125.925 45.5552 125.925 46.8484 125.177L79.4402 106.365C80.7361 105.619 81.4783 104.334 81.4783 102.839V13.4926C81.4783 11.9971 82.2184 10.7118 83.5144 9.96577L99.8092 0.559021C101.104 -0.186356 102.589 -0.186356 103.885 0.559021Z" fill="black"/>
<path d="M354.571 190.484H328.951C326.107 190.484 324.306 188.911 323.562 185.767L301.09 80.6399C300.491 77.4961 301.612 75.9231 304.46 75.9231H326.031C329.326 75.9231 331.125 77.4961 331.426 80.6399L341.537 157.461H343.332L359.287 80.6399C359.738 77.4961 361.463 75.9231 364.454 75.9231H384.231C387.378 75.9231 389.251 77.4961 389.847 80.6399L405.353 157.461H407.148L417.486 80.6399C417.935 77.4961 419.736 75.9231 422.881 75.9231H444.452C447.45 75.9231 448.569 77.4961 447.825 80.6399L425.353 185.767C424.754 188.911 422.955 190.484 419.958 190.484H394.344C391.346 190.484 389.547 188.911 388.949 185.767L375.242 109.844H373.443L359.963 185.767C359.515 188.911 357.716 190.484 354.571 190.484ZM505.349 190.484H499.956C488.117 190.484 478.981 187.34 472.541 181.05C466.098 174.76 462.879 165.701 462.879 153.868V112.535C462.879 100.707 466.098 91.6472 472.541 85.3574C478.981 79.067 488.117 75.9231 499.956 75.9231H551.863C555.158 75.9231 556.803 77.4961 556.803 80.6399V185.767C556.803 188.911 555.158 190.484 551.863 190.484H532.984C529.839 190.484 528.266 188.911 528.266 185.767V178.354H527.368C525.721 182.396 522.799 185.429 518.603 187.451C514.411 189.471 509.989 190.484 505.349 190.484ZM528.266 148.703V103.101C528.266 101.454 527.368 100.631 525.569 100.631H504.447C499.654 100.631 496.282 101.645 494.335 103.664C492.387 105.686 491.416 109.094 491.416 113.885V152.522C491.416 157.313 492.387 160.722 494.335 162.741C496.282 164.763 499.654 165.776 504.447 165.776H512.764C523.098 165.776 528.266 160.082 528.266 148.703ZM605.344 221.033H586.244C583.097 221.033 581.525 219.534 581.525 216.542V80.6399C581.525 77.4961 583.097 75.9231 586.244 75.9231H605.344C608.489 75.9231 610.063 77.4961 610.063 80.6399V88.0526H610.96C612.607 84.0078 615.531 80.9784 619.721 78.9567C623.917 76.9309 628.335 75.9231 632.98 75.9231H642.194C653.727 75.9231 662.455 79.067 668.372 85.3574C674.29 91.6472 677.251 100.707 677.251 112.535V153.868C677.251 165.701 674.29 174.76 668.372 181.05C662.455 187.34 653.727 190.484 642.194 190.484H632.98C628.335 190.484 623.917 189.471 619.721 187.451C615.531 185.429 612.607 182.396 610.96 178.354H610.063V216.542C610.063 219.534 608.489 221.033 605.344 221.033ZM625.564 165.776H635.454C640.247 165.776 643.656 164.763 645.679 162.741C647.699 160.722 648.713 157.313 648.713 152.522V113.885C648.713 109.094 647.699 105.686 645.679 103.664C643.656 101.645 640.247 100.631 635.454 100.631H625.564C615.23 100.631 610.063 106.325 610.063 117.705V148.703C610.063 160.082 615.23 165.776 625.564 165.776ZM743.086 190.484H700.389C697.396 190.484 695.897 188.911 695.897 185.767V171.388C695.897 169.744 696.199 168.582 696.795 167.907C697.396 167.233 698.594 166.899 700.389 166.899H737.915C745.256 166.899 748.929 164.652 748.929 160.156V159.034C748.929 155.439 745.859 151.994 739.716 148.703L717.469 136.346C709.83 132.452 704.21 128.263 700.617 123.767C697.023 119.277 695.222 113.51 695.222 106.473C695.222 95.9894 697.994 88.2758 703.536 83.3357C709.082 78.3935 717.77 75.9231 729.602 75.9231H767.128C770.126 75.9231 771.626 77.4961 771.626 80.6399V95.2398C771.626 96.8868 771.324 98.0459 770.722 98.7221C770.126 99.3976 768.927 99.734 767.128 99.734H735.895C728.554 99.734 724.884 101.604 724.884 105.348V106.473C724.884 109.766 728.105 113.135 734.549 116.58L757.242 130.058C765.033 134.251 770.501 138.556 773.646 142.974C776.793 147.393 778.365 153.196 778.365 160.383C778.365 180.448 766.606 190.484 743.086 190.484ZM799.266 56.6024V37.0602C799.266 34.0678 800.76 32.5702 803.757 32.5702H823.306C826.303 32.5702 827.803 33.9897 827.803 36.837V56.6024C827.803 59.5989 826.303 61.0978 823.306 61.0978H803.757C800.76 61.0978 799.266 59.5989 799.266 56.6024ZM799.266 185.767V80.6399C799.266 77.4961 800.76 75.9231 803.757 75.9231H823.08C826.229 75.9231 827.803 77.4961 827.803 80.6399V185.767C827.803 187.713 827.465 188.985 826.789 189.587C826.115 190.183 824.953 190.484 823.306 190.484H803.984C800.837 190.484 799.266 188.911 799.266 185.767Z" fill="black"/>
</svg>
